<svg id="icon" xmlns="http://www.w3.org/2000/svg" width="32" height="32" viewBox="0 0 32 32">
  <title>muffin-or-cupcake</title>
  <!-- Feste Flächen statt Konturlinien für die Becher-Unterseite -->
  <path fill="#000000" d="M10.15,19l1.71,6h8.28l1.71-6H10.15z M13.57,24l-1.14-4h1.71l0.57,4H13.57z M17.43,24h-1.43l-0.29-4h1.43L17.43,24z M19.57,20l-1.14,4h-0.57l0.57-4H19.57z"/>
  <!-- Die obere Haube (Teig-Wölbung) -->
  <path fill="#000000" d="M8,19.5c0-4.14,3.58-7.5,8-7.5s8,3.36,8,7.5h-2c0-3.04-2.69-5.5-6-5.5s-6,2.46-6,5.5H8z"/>
  <!-- Die kleine Kirsche / der Punkt oben drüber als echte Kreisfläche -->
  <circle fill="#000000" cx="16" cy="12" r="2"/>
  <!-- Der kleine Stiel oben -->
  <path fill="#000000" d="M16.5,10.2c0.6-0.4,1.4-0.4,1.9,0.1l1.2-1.6c-1.1-0.9-2.7-0.9-3.9-0.1L16.5,10.2z"/>
  <!-- Das unsichtbare 32x32-Hintergrundrechteck zum Schutz des Layouts -->
  <rect id="_Transparent_Rectangle_" fill="none" width="32" height="32"/>
</svg>

